<svg xmlns="http://www.w3.org/2000/svg" width="21.005" height="21" viewBox="0 0 21.005 21">
  <path id="Icon_awesome-instagram" data-name="Icon awesome-instagram" d="M10.5,7.354a5.384,5.384,0,1,0,5.384,5.384A5.376,5.376,0,0,0,10.5,7.354Zm0,8.885a3.5,3.5,0,1,1,3.5-3.5A3.507,3.507,0,0,1,10.5,16.238Zm6.86-9.1A1.256,1.256,0,1,1,16.1,5.878,1.253,1.253,0,0,1,17.36,7.133Zm3.566,1.275a6.215,6.215,0,0,0-1.7-4.4,6.256,6.256,0,0,0-4.4-1.7c-1.734-.1-6.931-.1-8.664,0A6.247,6.247,0,0,0,1.765,4a6.235,6.235,0,0,0-1.7,4.4c-.1,1.734-.1,6.931,0,8.664a6.215,6.215,0,0,0,1.7,4.4,6.264,6.264,0,0,0,4.4,1.7c1.734.1,6.931.1,8.664,0a6.215,6.215,0,0,0,4.4-1.7,6.256,6.256,0,0,0,1.7-4.4c.1-1.734.1-6.926,0-8.66Zm-2.24,10.52a3.544,3.544,0,0,1-2,2c-1.382.548-4.663.422-6.19.422s-4.812.122-6.19-.422a3.544,3.544,0,0,1-2-2c-.548-1.382-.422-4.663-.422-6.19s-.122-4.812.422-6.19a3.544,3.544,0,0,1,2-2C5.692,4,8.972,4.13,10.5,4.13s4.812-.122,6.19.422a3.544,3.544,0,0,1,2,2c.548,1.382.422,4.663.422,6.19S19.234,17.55,18.686,18.928Z" transform="translate(0.005 -2.238)" fill="#333"/>
</svg>
