<svg xmlns="http://www.w3.org/2000/svg" width="94" height="383.874" viewBox="0 0 94 383.874">
  <g id="レイヤー_2" data-name="レイヤー 2" transform="translate(0 0.01)">
    <g id="レイヤー_1" data-name="レイヤー 1" transform="translate(0 -0.01)">
      <path id="パス_18" data-name="パス 18" d="M32.208,1.368l1.15,2.248v.292h.378l.189-.446h0V2.089a2.094,2.094,0,0,0-.48-1.253A1.579,1.579,0,0,0,32.5.2.858.858,0,0,0,31.71.6h0l.1.532Z" transform="translate(22.703 0.159)" fill="#231815"/>
      <path id="パス_19" data-name="パス 19" d="M30.547,12.021a3.9,3.9,0,0,0,1.373.927,7.018,7.018,0,0,0,1.613.446h.583a8.461,8.461,0,0,0,.944,0,7.447,7.447,0,0,0,1.39-.326,7.722,7.722,0,0,0,1.27-.566H37.8v-.48h-.172l-2.059-.1-2.042-.1a3.192,3.192,0,0,1-1.716-.618,1.613,1.613,0,0,1-.515-.669,2.625,2.625,0,0,1-.189-.806,9.078,9.078,0,0,1,.12-1.544,11.907,11.907,0,0,1,.343-1.459,4.616,4.616,0,0,1,.652-1.338h0l-.189-.6h-.618a7.344,7.344,0,0,0-.755,1.39c-.189.48-.378.961-.532,1.459a6.864,6.864,0,0,0-.275,1.579,7.534,7.534,0,0,0,.12,1.407A2.969,2.969,0,0,0,30.547,12.021Z" transform="translate(21.378 3.439)" fill="#231815"/>
      <path id="パス_20" data-name="パス 20" d="M36.1,1.86l.137.154.12-.154A1.716,1.716,0,0,0,36.718.9V.436L36.255.007h0A.686.686,0,0,0,35.5.35h0A2.78,2.78,0,0,0,36.1,1.86Z" transform="translate(25.416 0.01)" fill="#231815"/>
      <path id="パス_21" data-name="パス 21" d="M35.262,1.794h0a.5.5,0,0,0,.446-.566L35.365.25h-.172c-.446,0-.618.1-.7.275h0l.154.858Z" transform="translate(24.693 0.196)" fill="#231815"/>
      <path id="パス_22" data-name="パス 22" d="M37,15.13l-.549.137v.172c.1.412.189.841.292,1.27A5.679,5.679,0,0,1,36.9,18.03v.086h0L35.18,19.231a12.783,12.783,0,0,0-1.63,1.287,5.885,5.885,0,0,0-1.27,1.716v.806l.309-.429a6.863,6.863,0,0,1,1.321-1.321c.5-.378,1.012-.721,1.544-1.047L37,19.351v4.29a12.785,12.785,0,0,1-.189,2.694,6.2,6.2,0,0,1-.721,2.3h-.137a13.4,13.4,0,0,0-1.424,0,11.033,11.033,0,0,0-1.373.189,3.809,3.809,0,0,0-1.27.48H31.8v.635l.892.292H35.4a2.454,2.454,0,0,0,1.184-.463l1.27.275c.429.1.858.24,1.27.378a4.873,4.873,0,0,1,1.115.566v.154l.652-.1v-.12a1.459,1.459,0,0,0-.429-1.253h0a4.358,4.358,0,0,0-1.493-.566l-1.321-.257a9.54,9.54,0,0,0,.395-1.253,10.45,10.45,0,0,0,.223-1.544,6.278,6.278,0,0,1,.137-1.6,8.809,8.809,0,0,0,0-1.9,11.606,11.606,0,0,0-.1-1.9c-.1-.635-.1-1.3-.189-1.87h0a2.076,2.076,0,0,0,.927-1h0l-.034-.961-.223-.1h-.326v.137a1.081,1.081,0,0,1-.463.686,7.772,7.772,0,0,0-.223-1.133,2.917,2.917,0,0,0-.635-1.2Z" transform="translate(22.767 10.849)" fill="#231815"/>
      <path id="パス_23" data-name="パス 23" d="M28.6,32a13.727,13.727,0,0,0,.446,2.368v.292h.48V30.543c0-1.716.12-3.432.206-5.045s.24-3.432.463-5.011a22.393,22.393,0,0,1,1.047-4.667h.137l-.137-.6-.566.223h0a11.909,11.909,0,0,0-1.441,3.724c-.257,1.287-.48,2.608-.652,3.912a38.079,38.079,0,0,0-.309,4,16.91,16.91,0,0,0,.12,2.488C28.51,30.338,28.51,31.281,28.6,32Z" transform="translate(20.24 10.914)" fill="#231815"/>
      <path id="パス_24" data-name="パス 24" d="M28.794,47.908h0c.206-.549.429-1.115.669-1.716a9.25,9.25,0,0,1,.824-1.51,17.332,17.332,0,0,1,1.064-1.441A4.838,4.838,0,0,1,32,42.571a1.836,1.836,0,0,1,.738-.309h.635a3.586,3.586,0,0,1,.944,1.03c.257.429.5.858.772,1.27a11.667,11.667,0,0,0,.927,1.321,3.844,3.844,0,0,0,1.2,1.047,4.839,4.839,0,0,0,1.476.5,5.474,5.474,0,0,0,1.922-.189c.583-.189,1.15-.378,1.716-.6a12.507,12.507,0,0,0,1.6-.789h0v-.378h-.206l-1.3.378a10.293,10.293,0,0,1-1.3.326l-1.27.24a5.629,5.629,0,0,1-.961,0,4.753,4.753,0,0,1-.858-.172A4.187,4.187,0,0,1,36.7,45.2a9.455,9.455,0,0,1-1.012-1.424c-.292-.5-.6-1-.944-1.476a2.488,2.488,0,0,0-1.39-.961h0l-1.115.12h0a4.8,4.8,0,0,0-1.03.669,2.385,2.385,0,0,0-.36.36c.48-1.287,1-2.557,1.51-3.809s1.27-2.951,1.939-4.41a47.253,47.253,0,0,1,2.214-4.238V29.65l-.532.154h0a40.771,40.771,0,0,0-3.26,5.594c-.927,1.956-1.716,3.947-2.574,5.9s-1.562,4-2.3,6.074v.086l.463.635Z" transform="translate(19.939 21.245)" fill="#231815"/>
      <path id="パス_25" data-name="パス 25" d="M46.013,50.126h0a3.312,3.312,0,0,0-1.15-.583,7.55,7.55,0,0,0-1.27-.206H41.535a16.384,16.384,0,0,0-2.059.12l-1.939.257h-.463l-.463-1.973v-1.03a2.831,2.831,0,0,1,.257-.961h0l-.137-.721-2.8,2.454h0v.463l2.093-1.476-.1.223a7.361,7.361,0,0,0,0,1.63,6.314,6.314,0,0,0,.326,1.441q-1.029.13-2.042.36l-2.265.412c-.755.137-1.493.292-2.179.463h-.086l-.618-1.476a.806.806,0,0,1,.086-.583,2.025,2.025,0,0,1,.892-.463,7.738,7.738,0,0,1,1.115,0h.172v-.395h-.172a9.218,9.218,0,0,0-1.2,0,3.192,3.192,0,0,0-1.133.326h0l-.343.566h0a2.471,2.471,0,0,0,.1,1.133,5.474,5.474,0,0,0,.412.927L26.52,51.5l.1.515.395.189,2.008-.257h.429a30.357,30.357,0,0,0,1.991,3.329c.789,1.081,1.613,2.145,2.454,3.174s1.716,2.059,2.625,3.037L39.7,64.54l-.892-1.321c-.909-1.338-1.87-2.643-2.883-3.861s-2.008-2.368-3-3.724a45.849,45.849,0,0,1-2.728-3.792l6.126-1.064h.36l.618.892a6.4,6.4,0,0,0,1.407,1.2,9.541,9.541,0,0,0,1.493.789,5.68,5.68,0,0,0,1.716.412,7.414,7.414,0,0,0,1.253-.1,4.96,4.96,0,0,0,1.15-.343A3.638,3.638,0,0,0,46.03,52.2a2.814,2.814,0,0,0,.343-.961A1.853,1.853,0,0,0,46.013,50.126Zm-.686.892v.275a2.831,2.831,0,0,1-.566.789,4.17,4.17,0,0,1-.824.652l-1.287.429a4.941,4.941,0,0,1-1.338,0,5.972,5.972,0,0,1-1.218-.36l-1-.583a6.589,6.589,0,0,1-1.561-1.51l3.535-.583h1.39a7.98,7.98,0,0,1,1.287.1,7.741,7.741,0,0,1,1.167.275Z" transform="translate(18.987 32.256)" fill="#231815"/>
      <path id="パス_26" data-name="パス 26" d="M41.9,97.8a36.031,36.031,0,0,1,3.432,1.527,36.94,36.94,0,0,1,3.277,1.9,20.076,20.076,0,0,1,3.037,2.505l.12.12H53.24l.858-1.1v-.1a6.006,6.006,0,0,0-.446-3.432V99.1A8.58,8.58,0,0,0,50.22,96.94c-1.133-.36-2.385-.686-3.724-.978a11.48,11.48,0,0,0-4.7.429l-.395.137.343,1.184Z" transform="translate(29.64 68.665)" fill="#231815"/>
      <path id="パス_27" data-name="パス 27" d="M23.758,109.252h.154a18.071,18.071,0,0,0,3.741,0,14.02,14.02,0,0,0,3.243-.789h0l-.154,6.658.172,1.012-.378,12.887c-.343-1.03-.7-2.042-1.064-3a15.032,15.032,0,0,0-2.059-3.844l-1.562-.875-2.78.961-1.527,3.174v.172a11.566,11.566,0,0,0,.395,4.135c.36,1.184.755,2.368,1.184,3.535s.858,2.316,1.321,3.535a39.636,39.636,0,0,1,1.9,3.827,8.459,8.459,0,0,0,2.917,3.432l.154.1,2.814-.583.721-1.424c.721.463,1.476.961,2.282,1.441a7.482,7.482,0,0,0,3.106,1.115h1.716a18.876,18.876,0,0,0,3.689-.377,30.889,30.889,0,0,0,5.011-1.544,18.327,18.327,0,0,0,4.685-2.78,11.859,11.859,0,0,0,2.574-3,10.742,10.742,0,0,0,1.3-3.706c.189-1.287.378-2.574.549-3.93a17.706,17.706,0,0,0-.223-2.746,16.882,16.882,0,0,0-.635-2.745l-1.15-3.209.257,3.432a12.132,12.132,0,0,1-.36,4.032c-.36,1.338-.755,2.677-1.167,3.964a12.166,12.166,0,0,1-1.716,3.432,11.874,11.874,0,0,1-3.689,2.8,40.715,40.715,0,0,1-4.256,1.716,20.953,20.953,0,0,1-4.479.978,11.566,11.566,0,0,1-2.8-.326,6.006,6.006,0,0,1-2.248-1.047l-1.39-2.162.24-5.92V116.047l-.5-6.864v-2.008l2.042-1.407a13.385,13.385,0,0,0,2.986-3.809,12.921,12.921,0,0,0,1.253-8.992A19.751,19.751,0,0,0,38.7,88.609a29.135,29.135,0,0,1-1.716-2.643,5.011,5.011,0,0,0-2.557-2.2h-.1l-1.373.206-.1.12a6.3,6.3,0,0,0-1.39,3.277c-.137,1.15-.292,2.265-.463,3.432v13.436c-.909.395-1.853.755-2.814,1.1s-2.162.669-3.26.944a4.77,4.77,0,0,1-3.02-.532l-.48-1.407h-.738l-.446.772.48,2.54Zm4.89,22.445c.446,1.476.944,2.917,1.476,4.29l-.412,3.432h0a24.965,24.965,0,0,1-2.282-3.432c-.772-1.407-1.493-2.831-2.128-4.238a33.134,33.134,0,0,1-1.6-4.359,4.135,4.135,0,0,1,1.373-4.015l.566.1a9.986,9.986,0,0,1,1.819,3.809c.343,1.493.738,2.917,1.184,4.41Zm9.129-36.481c-.223.978-.463,1.9-.738,2.763-.532.824-1.1,1.716-1.716,2.488a7.206,7.206,0,0,1-1.716,1.716L33.264,98.1V89.192a9.352,9.352,0,0,1,.721-3.672l.395.12a8.305,8.305,0,0,1,2.248,3.054,30.426,30.426,0,0,1,1.218,3.655,8.958,8.958,0,0,1-.069,2.866Z" transform="translate(14.491 59.992)" fill="#231815"/>
      <path id="パス_28" data-name="パス 28" d="M31.965,158.569c4.118-.583,8.219-1.27,12.166-2.042a110.411,110.411,0,0,0,11.84-2.934h.086l-.137,12.612c-.257-.686-.532-1.373-.841-2.008a13.607,13.607,0,0,0-1.853-2.934,6.092,6.092,0,0,0-3.6-2.265,5.354,5.354,0,0,0-3.9,1.63,7.7,7.7,0,0,0-2.317,4.341,21.861,21.861,0,0,0,1.716,8.374c1.064,2.557,2.145,5.148,3.226,7.619A52.818,52.818,0,0,0,52.059,188l-1.922,2.728a32.89,32.89,0,0,1-2.591,2.317,13.247,13.247,0,0,1-2.8,1.716l-.927.412,1.441.583h.1a10.3,10.3,0,0,0,4.582-1.441,26.28,26.28,0,0,0,3.792-2.694l.154-.12v-.275h.36l.223-.566,1.819-1.184.12-.1a12.543,12.543,0,0,0,2.128-5.817c.189-2.025.378-4.05.532-6.126s.309-4.1.429-6.143V152.478h0a27.867,27.867,0,0,0,4-1.459,18.875,18.875,0,0,0,3.792-2.2A6.5,6.5,0,0,0,69.8,144.7v-.12l-1.3-3.14v-.137a14.757,14.757,0,0,0-2.334-1.9,28.2,28.2,0,0,0-2.557-1.441h-1.39l1.424,1.424a14.534,14.534,0,0,1,2.076,2.2,8.958,8.958,0,0,1,1.184,2.162l-.583,1.544a10.5,10.5,0,0,1-3.174,2.4,37.9,37.9,0,0,1-3.655,1.493h-.12c-.154-1.3-.257-2.608-.343-3.9s-.223-2.848-.412-4.238a21.311,21.311,0,0,0-1-4.032,4.359,4.359,0,0,0-1.939-2.42h-.172a3.226,3.226,0,0,0-2.677.789l-.154.12v.738l1.9.257a10.3,10.3,0,0,1,.909,3.432c.137,1.373.257,2.745.343,4.1s.172,2.694.292,3.912l-.154,2.317a115.23,115.23,0,0,1-11.651,3.123c-4.067.858-8.151,1.613-12.132,2.248a95.457,95.457,0,0,1-12.132,1.133l-4.8-.377a7.687,7.687,0,0,1-4.067-1.544l-.48-1.716-1.613.292v.326a3.655,3.655,0,0,0,.824,2.8,10.124,10.124,0,0,0,4.582,2.317,43.9,43.9,0,0,0,5.148.806,85.8,85.8,0,0,0,12.321-1.1Zm22.6,16.8v4.976a13.727,13.727,0,0,1-.875,4.444,38.267,38.267,0,0,1-3.26-5.268c-1.047-2.025-2.093-4.153-3.089-6.3a27.885,27.885,0,0,1-2.128-6.486l.395-2.625a6.864,6.864,0,0,1,2.643-2.694l1.716.5a12.835,12.835,0,0,1,2.437,3.964,39.585,39.585,0,0,1,1.356,4.6C53.964,172.039,54.29,173.7,54.564,175.368Z" transform="translate(6.489 96.352)" fill="#231815"/>
      <path id="パス_29" data-name="パス 29" d="M57.373,192.359a10.708,10.708,0,0,0-3.844-3.569h-.12l-2.3.343.978,3.552a7.189,7.189,0,0,0,2.059,2.677H54.3a3.654,3.654,0,0,0,.909.137,2.265,2.265,0,0,0,2.2-1.716v-1.373Z" transform="translate(36.592 135.181)" fill="#231815"/>
      <path id="パス_30" data-name="パス 30" d="M49.669,189.27h-.137l-1.6.309-.446.755v.189c.292.892.583,1.716.892,2.728a8.477,8.477,0,0,0,1.356,2.591l.086.1,1.2.463h1.167l1.338-1.338v-1.9a10.3,10.3,0,0,0-3.861-3.9Z" transform="translate(34 135.524)" fill="#231815"/>
      <path id="パス_31" data-name="パス 31" d="M42.25,232.876c-.686,1.3-1.441,2.625-2.248,3.964A10.468,10.468,0,0,1,37.085,240a4.7,4.7,0,0,1-3.432-.978,16.49,16.49,0,0,1-4.376-6.692c-.858-2.54-1.613-5.148-2.248-7.722a43.706,43.706,0,0,1-1.2-8.065,44.408,44.408,0,0,1,.446-6.3,21.244,21.244,0,0,1,1.716-5.663,23.185,23.185,0,0,1,3.123-4.925,27.15,27.15,0,0,1,4.067-3.621,8.34,8.34,0,0,1,4.582-1.51,13.025,13.025,0,0,0,5.148-1.2,7.67,7.67,0,0,0,3.192-2.3l.1-.189a1.87,1.87,0,0,0-1.081-2.231h-.154a9.626,9.626,0,0,0-4.513.7c-1.321.566-2.608,1.133-3.9,1.716a10,10,0,0,1-4.1.824H30.238a19.578,19.578,0,0,1-3.981-.395,11.445,11.445,0,0,1-3.432-1.407l-1.39-1.956-1.356.5.961,2.986.1.172a10.518,10.518,0,0,0,3.621,2.368,18.48,18.48,0,0,0,4.067,1.064,18.7,18.7,0,0,0,3.277.189l-.395.463a30.253,30.253,0,0,0-4.908,5.663,21.964,21.964,0,0,0-2.848,6.572,34.457,34.457,0,0,0-1.064,7.224,55.185,55.185,0,0,0,.755,9.163,60.66,60.66,0,0,0,2.145,8.58,27.009,27.009,0,0,0,4.256,7.859,9.266,9.266,0,0,0,4.564,2.728h0a8.128,8.128,0,0,0,1.287.1,7.362,7.362,0,0,0,5.062-1.939A57.145,57.145,0,0,0,47.4,230.92c1.716-3.878,3.26-7.808,4.547-11.686s2.488-7.79,3.6-11.617v-2.728L44.429,228.912C43.691,230.217,42.988,231.572,42.25,232.876Z" transform="translate(14.376 134.679)" fill="#231815"/>
      <path id="パス_32" data-name="パス 32" d="M47.409,207.408a24.418,24.418,0,0,1-2.419-7.361,30.252,30.252,0,0,0-2.334-7.739l-.12-.257H40.82v.429a55.871,55.871,0,0,0,.463,7.258,64.518,64.518,0,0,0,1.321,7,19.613,19.613,0,0,0,2.814,6.418l3.706,2.3L51.2,215.2l-.257-.532C49.863,212.178,48.645,209.741,47.409,207.408Z" transform="translate(29.225 137.515)" fill="#231815"/>
      <path id="パス_33" data-name="パス 33" d="M5.29,229.62a2.248,2.248,0,0,1-.6-.789c-.086-.395-.137-.789-.189-1.167a9.617,9.617,0,0,1,0-1.218v-3.192a1.716,1.716,0,0,1-1.064-.326l-.12-.721c.137-.5.257-.961.378-1.424L4,219.324a7.156,7.156,0,0,0,.154-1.51h-.12l-2.351,2.179H1.343L.88,219.53v-.6A25.118,25.118,0,0,1,2.339,215.5c.566-1.115,1.15-2.214,1.716-3.277a17.159,17.159,0,0,1,2.231-3.054l.532-.206.257.206v.395c-.583.875-1.15,1.716-1.716,2.625a25.792,25.792,0,0,0-1.51,2.694c-.463.978-.892,1.853-1.287,2.831H2.8a3.792,3.792,0,0,1,.824-.635,1.51,1.51,0,0,1,.961-.154l.378.463v.961a4.043,4.043,0,0,1-.206,1.287l-.24,1.407a4.835,4.835,0,0,1-.275,1.218.961.961,0,0,1,.858.257,2.608,2.608,0,0,1,.257,1.184v4.015h.189l1.716-5.731h0v.12a19.614,19.614,0,0,1-.292,2.505l-.36,2.54a8.288,8.288,0,0,1-.738,2.368A1.03,1.03,0,0,1,5.29,229.62Zm.7-8.992-.24-.137v-.257c.824-.172,1.716-.378,2.522-.6l2.557-.6a4.822,4.822,0,0,0,2.265-1.2,3.071,3.071,0,0,0,.635-1.184,6.005,6.005,0,0,0,.154-1.373l-.206-1.459h-.395a4.166,4.166,0,0,1-.875.172H11.45l-.395-.206-.12-.378a7.037,7.037,0,0,1,1.218-.309,3.878,3.878,0,0,0,1.2-.429v-.206l-.909-2.437.172-.326.412-.137a11.088,11.088,0,0,0,1.184.446l1.2.395a3.861,3.861,0,0,1,1.15.6,1,1,0,0,1,.275.858l-.412.721a4.014,4.014,0,0,1-.841.566,5.148,5.148,0,0,1-.927.36v.377a4.668,4.668,0,0,1,.137,1.081v1.1l-.515,1.51h.189a12.973,12.973,0,0,1,2.454-.858q1.287-.326,2.574-.618a25.275,25.275,0,0,1,2.66-.446l.378.275.137.635a2.025,2.025,0,0,1-.927.806l-3.724,1.167h0l1.1-.909h-.395a23.7,23.7,0,0,0-4.153,1.3,22.578,22.578,0,0,1-4.221,1.3,24.4,24.4,0,0,1-4.359.412Zm6.624,7.945-.378-.275a7.053,7.053,0,0,0-.635-1.716,8.58,8.58,0,0,1-.652-1.716A6.143,6.143,0,0,1,10.8,223a2.025,2.025,0,0,1,.652-1.047,1.716,1.716,0,0,1,1.373-.463l.137.343a1.527,1.527,0,0,0-1.184.721l-.206.909a7.069,7.069,0,0,0,.343,1.115c.137.343.275.7.446,1.064h.206a9.1,9.1,0,0,1,.326-1.047,6.041,6.041,0,0,1,.48-1.012,3.723,3.723,0,0,1,.755-.824,9.951,9.951,0,0,1,1.287-.789l1.373-.652a3.431,3.431,0,0,1,1.459-.275l.446.532v.515a6.556,6.556,0,0,1-.686,1.493c-.292.463-.566.927-.824,1.407h.395l1.51-.137.463.463v.532a2.094,2.094,0,0,1-.978.841l-1.51.463v-.12l.378-.841h-.12l-1.39.12-.446-.412v-.377a3.226,3.226,0,0,1,.532-1.047,11.39,11.39,0,0,0,.652-1.03,10,10,0,0,0,.549-1.03H17.1a13.118,13.118,0,0,1-1.51.583,2.883,2.883,0,0,0-1.922,1.991,8.578,8.578,0,0,0-.275,1.184,7.927,7.927,0,0,0-.1,1.27l.12.669a.806.806,0,0,1-.5.532Zm2.437-16.662.326-.206v-.137l-1.424-.532v.137l.378,1h.257Z" transform="translate(0.63 149.621)" fill="#e60012" stroke="#e60012" stroke-linecap="round" stroke-linejoin="round" stroke-width="0.2"/>
      <path id="パス_34" data-name="パス 34" d="M13.728,206H10.982A11,11,0,0,0,0,216.982v8.408a11,11,0,0,0,10.982,10.982h2.746A11,11,0,0,0,24.71,225.39v-8.408A11,11,0,0,0,13.728,206Zm0,28.828H10.982a9.455,9.455,0,0,1-9.455-9.438v-8.408a9.455,9.455,0,0,1,9.455-9.438h2.746a9.455,9.455,0,0,1,9.438,9.438v8.408a9.455,9.455,0,0,1-9.438,9.489Z" transform="translate(0 147.502)" fill="#e60012"/>
    </g>
  </g>
</svg>
